<svg xmlns="http://www.w3.org/2000/svg" viewBox="0 0 64 64" fill="none" role="img" aria-label="botttle">
  <title>botttle</title>
  <defs>
    <clipPath id="bottleClip2">
      <path d="M26 8 h12 v8 l4 8 v28 c0 3-2 5-5 5 H27 c-3 0-5-2-5-5 V24 l4-8 V8z" />
    </clipPath>
  </defs>
  <path
    d="M26 8 h12 v8 l4 8 v28 c0 3-2 5-5 5 H27 c-3 0-5-2-5-5 V24 l4-8 V8z"
    stroke="#2563eb"
    stroke-width="2.5"
    stroke-linejoin="round"
    fill="none"
  />
  <g clip-path="url(#bottleClip2)">
    <path d="M16 42 Q 24 36, 32 42 T 48 42 L 48 60 L 16 60 Z" fill="#2563eb" />
  </g>
</svg>
