<?xml version="1.0" encoding="UTF-8" standalone="no"?>
<!-- Created with Inkscape (http://www.inkscape.org/) -->

<svg
   width="18.255829mm"
   height="19.460739mm"
   viewBox="0 0 18.255829 19.460739"
   version="1.1"
   id="svg5"
   xml:space="preserve"
   inkscape:version="1.2.2 (b0a8486541, 2022-12-01)"
   sodipodi:docname="FolioMint_Main.svg"
   xmlns:inkscape="http://www.inkscape.org/namespaces/inkscape"
   xmlns:sodipodi="http://sodipodi.sourceforge.net/DTD/sodipodi-0.dtd"
   xmlns="http://www.w3.org/2000/svg"
   xmlns:svg="http://www.w3.org/2000/svg"><sodipodi:namedview
     id="namedview7"
     pagecolor="#ffffff"
     bordercolor="#000000"
     borderopacity="0.25"
     inkscape:showpageshadow="2"
     inkscape:pageopacity="0.0"
     inkscape:pagecheckerboard="0"
     inkscape:deskcolor="#d1d1d1"
     inkscape:document-units="mm"
     showgrid="false"
     inkscape:zoom="0.70710678"
     inkscape:cx="516.18795"
     inkscape:cy="318.19805"
     inkscape:window-width="1920"
     inkscape:window-height="1012"
     inkscape:window-x="0"
     inkscape:window-y="0"
     inkscape:window-maximized="1"
     inkscape:current-layer="layer1" /><defs
     id="defs2" /><g
     inkscape:label="Layer 1"
     inkscape:groupmode="layer"
     id="layer1"
     transform="translate(-48.609445,-7.7893613)"><g
       id="g31127"
       transform="translate(-8.1519685,-42.033496)"
       inkscape:export-filename="FM_02.png"
       inkscape:export-xdpi="96"
       inkscape:export-ydpi="96"><path
         style="fill:#88c1b3;fill-opacity:1;stroke:none;stroke-width:0.15875;stroke-dasharray:none"
         d="m 57.089355,65.429046 c -0.253553,-0.132063 -0.324381,-0.297561 -0.327943,-0.588923 l 0.0039,-14.62489 c 0.0053,-0.308489 0.09815,-0.295929 0.325414,-0.181446 l 6.835735,3.498386 c 0.241414,0.125831 0.226029,0.199353 -0.0935,0.368933 l -2.121514,1.146093 c -0.2047,0.0982 -0.357672,0.111071 -0.568838,0 l -1.278832,-0.662398 c -0.350285,-0.188991 -0.438166,-0.156637 -0.441182,0.181163 l -0.0131,11.67706 c 0.0039,0.27144 -0.06654,0.435731 -0.36802,0.268597 z"
         id="path13494"
         sodipodi:nodetypes="ccccccccccccc" /><rect
         style="fill:#88c1b3;fill-opacity:1;stroke:none;stroke-width:0.184509;stroke-dasharray:none"
         id="rect13496"
         width="15.870259"
         height="3.0981526"
         x="70.52166"
         y="92.606003"
         ry="0.17201206"
         transform="matrix(0.86833632,-0.49597585,0,1,0,0)" /><rect
         style="fill:#88c1b3;fill-opacity:1;stroke:none;stroke-width:0.192071;stroke-dasharray:none"
         id="rect13498"
         width="3.09023"
         height="9.1867418"
         x="88.246849"
         y="107.98398"
         ry="0.17696141"
         transform="matrix(0.82023905,-0.57202089,0,1,0,0)" /><path
         style="fill:#64b099;fill-opacity:1;stroke:none;stroke-width:0.15875;stroke-dasharray:none"
         d="m 61.30205,63.597643 c -0.0019,-0.217108 0.137865,-0.384293 0.326031,-0.493541 l 7.581807,-4.562361 c 0.276338,-0.164323 0.386016,-0.16528 0.381003,0.155789 l -0.03696,2.756218 c -0.0068,0.172461 0.02368,0.342052 -0.169527,0.469397 l -5.043035,3.114852 c -0.159837,0.103062 -0.218803,0.259001 -0.211867,0.464617 l 0.0041,3.467936 c -0.01353,0.243535 -0.04677,0.376363 -0.275995,0.283083 l -2.288341,-0.834435 c -0.229197,-0.101304 -0.270648,-0.326142 -0.268732,-0.584079 z"
         id="path13500"
         sodipodi:nodetypes="ccccccccccccc" /><rect
         style="fill:#64b099;fill-opacity:1;stroke:none;stroke-width:0.182049;stroke-dasharray:none"
         id="rect13502"
         width="9.7727003"
         height="3.0146255"
         x="70.541702"
         y="92.596275"
         ry="0.19758004"
         transform="matrix(0.86843374,-0.49580525,0,1,0,0)" /></g></g></svg>
