<?xml version="1.0" encoding="UTF-8" standalone="no"?>
<!-- Created with Inkscape (http://www.inkscape.org/) -->

<svg
   width="1024.0001"
   height="804.30212"
   viewBox="0 0 270.93336 212.80494"
   version="1.1"
   id="svg5"
   xml:space="preserve"
   inkscape:version="1.2.2 (b0a8486541, 2022-12-01)"
   sodipodi:docname="Autoconduit_Main.svg"
   xmlns:inkscape="http://www.inkscape.org/namespaces/inkscape"
   xmlns:sodipodi="http://sodipodi.sourceforge.net/DTD/sodipodi-0.dtd"
   xmlns:xlink="http://www.w3.org/1999/xlink"
   xmlns="http://www.w3.org/2000/svg"
   xmlns:svg="http://www.w3.org/2000/svg"><sodipodi:namedview
     id="namedview7"
     pagecolor="#292929"
     bordercolor="#000000"
     borderopacity="0.25"
     inkscape:showpageshadow="2"
     inkscape:pageopacity="0"
     inkscape:pagecheckerboard="0"
     inkscape:deskcolor="#666666"
     inkscape:document-units="px"
     showgrid="false"
     inkscape:zoom="0.125"
     inkscape:cx="2164"
     inkscape:cy="1072"
     inkscape:window-width="1920"
     inkscape:window-height="1012"
     inkscape:window-x="1920"
     inkscape:window-y="0"
     inkscape:window-maximized="1"
     inkscape:current-layer="layer1" /><defs
     id="defs2"><linearGradient
       id="linearGradient12243"
       inkscape:collect="always"><stop
         style="stop-color:#7fbf7f;stop-opacity:1;"
         offset="0"
         id="stop12239" /><stop
         style="stop-color:#267326;stop-opacity:1;"
         offset="1"
         id="stop12241" /></linearGradient><filter
       inkscape:collect="always"
       style="color-interpolation-filters:sRGB"
       id="filter3"
       x="-0.00010388436"
       y="-0.00017458323"
       width="1.0002078"
       height="1.0003492"><feGaussianBlur
         inkscape:collect="always"
         stdDeviation="0.003083326"
         id="feGaussianBlur3" /></filter><linearGradient
       inkscape:collect="always"
       xlink:href="#linearGradient12243"
       id="linearGradient3213"
       gradientUnits="userSpaceOnUse"
       gradientTransform="translate(61.771675,257.58168)"
       x1="50.039665"
       y1="76.53138"
       x2="121.27252"
       y2="128.15593" /></defs><g
     inkscape:label="Layer 1"
     inkscape:groupmode="layer"
     id="layer1"
     transform="translate(671.96229,501.73309)"><g
       id="g3211"
       transform="matrix(3.440546,0,0,3.440546,-1056.6543,-1627.5963)"
       inkscape:export-filename="../Autoconduit_New/Autoconduit_1024_W_DVG_New.png"
       inkscape:export-xdpi="96"
       inkscape:export-ydpi="96"><path
         id="path3193"
         style="fill:#484c51;fill-opacity:0.996078;fill-rule:nonzero;stroke:none;stroke-width:0.29048;stroke-dasharray:none;image-rendering:optimizeQuality"
         d="m 183.76895,327.23388 c 3.7614,0 6.78958,3.61771 6.78958,8.1114 v 34.56115 c 0,4.49365 -3.02818,8.11137 -6.78958,8.11137 h -1.806 c -1.42308,0.004 -1.42257,0.004 -1.41534,1.54931 l 0.23028,8.01047 c 0.0619,1.81313 -0.11599,1.83513 -1.32407,0.89141 l -10.39212,-7.99612 c -3.70793,-2.55754 -3.46621,-2.45507 -7.9334,-2.45507 h -35.21769 c -3.76139,0 -6.78958,-3.61772 -6.78958,-8.11137 v -34.56115 c 0,-4.49368 3.02819,-8.1114 6.78958,-8.1114 z"
         sodipodi:nodetypes="ssssccccccsssss" /><g
         id="g3209"><path
           id="path3195"
           style="display:inline;fill:#2a2f33;fill-opacity:1;stroke:none;stroke-width:0.265;stroke-dasharray:none;filter:url(#filter3)"
           d="m 64.290072,316.28268 c -3.75061,0 -6.77013,3.01951 -6.77013,6.77013 v 28.8463 c 0,3.75062 3.01952,6.77013 6.77013,6.77013 12.911823,0 35.618451,0 57.692618,0 3.75062,0 6.77013,-3.01951 6.77013,-6.77013 v -28.8463 c 0,-3.75062 -3.01951,-6.77013 -6.77013,-6.77013 z"
           sodipodi:nodetypes="sssccssss"
           transform="matrix(0.92839127,0,0,1.0857553,65.72002,-11.40922)" /><g
           id="g3207"><path
             id="path3197"
             style="display:inline;fill:url(#linearGradient3213);fill-opacity:1;fill-rule:nonzero;stroke:none;stroke-width:0.265;stroke-dasharray:none;image-rendering:optimizeQuality"
             d="m 118.58147,334.11306 c -3.75062,0 -6.77013,3.01952 -6.77013,6.77013 v 28.8463 c 0,3.75062 3.01951,6.77013 6.77013,6.77013 h 1.80083 c 1.419,0.003 1.41849,0.003 1.41129,1.29313 l -0.22961,6.68589 c -0.0617,1.51332 0.11563,1.53168 1.32026,0.74402 l 10.36236,-6.67393 c 3.6973,-2.13464 3.45627,-2.04911 7.91066,-2.04911 h 35.11681 c 3.75062,0 6.77013,-3.01951 6.77013,-6.77013 v -28.8463 c 0,-3.75062 -3.01951,-6.77013 -6.77013,-6.77013 z"
             sodipodi:nodetypes="ssssccccccsssss" /><g
             id="g3205"
             transform="translate(61.719594,15.713705)"><circle
               style="fill:#ffffff;fill-opacity:1;stroke:none;stroke-width:0.273381;stroke-dasharray:none"
               id="circle3199"
               cx="85.708176"
               cy="340.2489"
               r="4.6302085" /><circle
               style="fill:#ffffff;fill-opacity:1;stroke:none;stroke-width:0.273381;stroke-dasharray:none"
               id="circle3201"
               cx="69.077354"
               cy="340.2489"
               r="4.6302085" /><circle
               style="fill:#ffffff;fill-opacity:1;stroke:none;stroke-width:0.273381;stroke-dasharray:none"
               id="circle3203"
               cx="102.339"
               cy="340.2489"
               r="4.6302085" /></g></g></g></g></g></svg>
